<?xml version="1.0" encoding="utf-8"?>
<!-- Generator: Adobe Illustrator 28.0.0, SVG Export Plug-In . SVG Version: 6.00 Build 0)  -->
<svg version="1.1" id="Layer_1" xmlns="http://www.w3.org/2000/svg" xmlns:xlink="http://www.w3.org/1999/xlink" x="0px" y="0px"
	 viewBox="0 0 30 36.45" style="enable-background:new 0 0 30 36.45;" xml:space="preserve">
<style type="text/css">
	.st0{fill:#81B64C;}
	.st1{fill:#FFFFFF;}
	.st2{fill-rule:evenodd;clip-rule:evenodd;fill:#B2E068;}
	.st3{fill-rule:evenodd;clip-rule:evenodd;fill:#FFFFFF;}
	.st4{fill:#FA412D;}
	.st5{fill:#26C2A3;}
</style>
<g>
	<g>
		<path class="st0" d="M24.907,25.475c-0.011-0.011-0.939-0.939-0.94-0.94l1.292-1.39c0.122-0.131,0.19-0.304,0.19-0.483v-1.896
			c0-0.204-0.087-0.387-0.226-0.516c-0.01-0.011-1.281-1.282-1.292-1.292c-0.001-0.001-0.002-0.002-0.003-0.003
			c1.996-0.878,3.233-3.006,3.233-5.835c0-2.012-0.626-3.669-1.705-4.774c-0.011-0.011-3.22-3.22-3.231-3.231
			c-0.938-0.978-2.225-1.534-3.747-1.534c-2.13,0-3.8,1.084-4.699,2.887c-0.006-0.006-1.494-1.493-1.505-1.503
			C11.421,4.09,10.08,3.579,8.432,3.579c-2.251,0-4.042,0.915-5.042,2.576C3.291,6.32,3.263,6.518,3.312,6.704
			C3.35,6.845,3.43,6.97,3.54,7.063c0.011,0.011,3.208,3.21,3.214,3.215l-2.69,2.515c-0.143,0.134-0.225,0.322-0.225,0.518v1.896
			c0,0.204,0.087,0.387,0.226,0.516c0.01,0.011,1.466,1.468,1.473,1.475c-0.897,0.437-1.629,1.095-2.147,1.956
			c-0.099,0.165-0.127,0.363-0.078,0.548c0.038,0.141,0.118,0.266,0.228,0.359c0.011,0.011,3.208,3.21,3.214,3.215l-2.69,2.515
			c-0.143,0.134-0.225,0.322-0.225,0.518v1.896c0,0.204,0.087,0.387,0.226,0.516c0.01,0.011,3.22,3.22,3.231,3.231
			c0.129,0.138,0.312,0.226,0.516,0.226h8.334c0.338,0,0.619-0.237,0.691-0.553c1.085,0.485,2.434,0.767,3.775,0.767
			c3.712,0,5.374-2.146,5.374-4.273C25.985,27.055,25.603,26.147,24.907,25.475z M16.922,16.792h-0.067v-0.067
			c0.008,0.008,0.016,0.016,0.024,0.024c0.011,0.01,0.021,0.022,0.032,0.032C16.915,16.785,16.918,16.789,16.922,16.792z
			 M16.373,25.143c0.01,0.011,0.02,0.021,0.031,0.031c0.002,0.002,0.004,0.005,0.006,0.007c-0.015-0.003-0.031-0.006-0.046-0.009
			C16.367,25.163,16.37,25.153,16.373,25.143z"/>
		<g>
			<path class="st1" d="M12.882,12.806v2.401H4.548v-1.896l4.007-3.747C9.411,8.769,9.534,8.28,9.534,7.837
				c0-0.688-0.459-1.101-1.376-1.101c-0.78,0-1.483,0.352-1.912,1.04L3.998,6.522c0.81-1.346,2.324-2.233,4.435-2.233
				c2.462,0,4.159,1.269,4.159,3.257c0,1.04-0.291,1.988-1.82,3.395l-2.019,1.866H12.882z"/>
			<path class="st1" d="M13.755,9.855c0-3.532,1.988-5.566,4.725-5.566c2.722,0,4.71,2.034,4.71,5.566s-1.988,5.566-4.71,5.566
				C15.743,15.421,13.755,13.388,13.755,9.855z M20.147,9.855c0-2.248-0.703-3.089-1.667-3.089c-0.979,0-1.682,0.841-1.682,3.089
				s0.703,3.089,1.682,3.089C19.443,12.944,20.147,12.103,20.147,9.855z"/>
			<path class="st1" d="M12.882,25.805v2.401H4.548V26.31l4.007-3.747c0.856-0.795,0.979-1.285,0.979-1.728
				c0-0.688-0.459-1.101-1.376-1.101c-0.78,0-1.483,0.352-1.912,1.04L3.998,19.52c0.81-1.346,2.324-2.233,4.435-2.233
				c2.462,0,4.159,1.269,4.159,3.257c0,1.04-0.291,1.988-1.82,3.395l-2.019,1.866H12.882z"/>
			<path class="st1" d="M22.012,24.857c0,1.82-1.437,3.563-4.664,3.563c-1.483,0-3.058-0.367-4.159-1.055l1.101-2.278
				c0.856,0.581,1.957,0.887,2.967,0.887c1.025,0,1.698-0.398,1.698-1.116c0-0.642-0.474-1.04-1.636-1.04h-1.269v-1.912l1.912-2.064
				h-4.221v-2.34h7.738v1.896l-2.217,2.386C21.064,22.166,22.012,23.328,22.012,24.857z"/>
		</g>
	</g>
	<path class="st2" d="M28.42,17.844c0.204,0.77,0.81,1.376,1.58,1.58c-0.77,0.204-1.375,0.81-1.58,1.58
		c-0.204-0.77-0.81-1.376-1.58-1.58C27.61,19.219,28.216,18.613,28.42,17.844z"/>
	<path class="st3" d="M13.755,0c0.165,0.623,0.655,1.113,1.278,1.278c-0.623,0.165-1.113,0.655-1.278,1.278
		c-0.165-0.623-0.655-1.113-1.278-1.278C13.099,1.113,13.589,0.623,13.755,0z"/>
	<path class="st3" d="M1.58,8.752c0.204,0.77,0.81,1.376,1.58,1.58c-0.77,0.204-1.375,0.81-1.58,1.58
		c-0.204-0.77-0.81-1.376-1.58-1.58C0.77,10.127,1.376,9.521,1.58,8.752z"/>
	<path class="st2" d="M2.153,22.241c0.147,0.553,0.582,0.989,1.136,1.136c-0.553,0.147-0.989,0.582-1.136,1.136
		c-0.147-0.553-0.582-0.989-1.136-1.136C1.57,23.23,2.006,22.794,2.153,22.241z"/>
	<path class="st3" d="M17.6,33.472c0.192,0.725,0.763,1.296,1.489,1.489c-0.725,0.192-1.296,0.763-1.489,1.489
		c-0.192-0.725-0.763-1.296-1.489-1.489C16.837,34.769,17.408,34.198,17.6,33.472z"/>
	<g>
		<path class="st4" d="M8.077,29.212c-1.913,0-3.465,1.551-3.465,3.465c0,1.913,1.551,3.465,3.465,3.465
			c1.913,0,3.465-1.551,3.465-3.465C11.541,30.764,9.99,29.212,8.077,29.212z"/>
		<g>
			<path class="st1" d="M10.286,31.118c-0.069-0.139-0.173-0.258-0.296-0.35c-0.127-0.092-0.269-0.166-0.42-0.212
				c-0.15-0.05-0.304-0.073-0.462-0.073c-0.154,0-0.308,0.019-0.458,0.065c-0.119,0.038-0.235,0.085-0.343,0.142
				c-0.046,0.027-0.089,0.05-0.123,0.077c0.062,0.073,0.119,0.158,0.162,0.243c0.089,0.177,0.135,0.37,0.139,0.566
				c0.027,0,0.05-0.008,0.073-0.023L8.6,31.518c0.035-0.027,0.073-0.05,0.112-0.069c0.05-0.027,0.104-0.05,0.158-0.065
				c0.062-0.019,0.123-0.027,0.189-0.027c0.1,0,0.2,0.031,0.277,0.089c0.035,0.027,0.065,0.062,0.085,0.104
				c0.019,0.038,0.031,0.085,0.031,0.131c0,0.096-0.035,0.189-0.1,0.258c-0.077,0.085-0.162,0.166-0.246,0.243
				c-0.062,0.05-0.123,0.104-0.189,0.162c-0.065,0.062-0.123,0.135-0.173,0.208c-0.054,0.077-0.096,0.166-0.127,0.254
				c-0.035,0.104-0.05,0.212-0.05,0.32v0.135c0,0,0,0.031,0.008,0.046c0.008,0.015,0.015,0.027,0.027,0.038
				c0.012,0.012,0.023,0.019,0.038,0.027c0.015,0.008,0.031,0.008,0.046,0.008h0.658c0,0,0.031,0,0.046-0.008
				c0.015-0.008,0.027-0.015,0.038-0.027c0.012-0.012,0.019-0.023,0.027-0.038c0.008-0.015,0.008-0.031,0.008-0.046v-0.085
				c0-0.1,0.035-0.196,0.104-0.269c0.069-0.073,0.15-0.154,0.25-0.243c0.069-0.058,0.139-0.119,0.2-0.185
				c0.065-0.073,0.127-0.15,0.185-0.231c0.058-0.085,0.108-0.181,0.139-0.277c0.038-0.119,0.054-0.243,0.054-0.366
				c0-0.169-0.035-0.339-0.112-0.489L10.286,31.118z"/>
			<path class="st1" d="M9.378,33.89H8.654c0,0-0.031,0-0.046,0.008c-0.015,0.008-0.027,0.015-0.038,0.027
				c-0.023,0.023-0.035,0.054-0.035,0.085v0.701c0,0.031,0.012,0.062,0.031,0.085c0.012,0.012,0.023,0.023,0.038,0.031
				c0.015,0.008,0.031,0.012,0.046,0.008h0.724c0,0,0.031,0,0.046-0.008c0.015-0.008,0.027-0.015,0.038-0.027
				c0.012-0.012,0.023-0.023,0.027-0.038c0.008-0.015,0.012-0.031,0.012-0.05v-0.701c0,0,0-0.031-0.012-0.046
				c-0.008-0.015-0.015-0.027-0.027-0.038C9.436,33.901,9.405,33.89,9.37,33.89H9.378z"/>
			<path class="st1" d="M7.226,33.89H6.502c0,0-0.031,0-0.046,0.008c-0.015,0.008-0.027,0.015-0.038,0.027
				c-0.023,0.023-0.035,0.054-0.035,0.085v0.701c0,0.031,0.012,0.062,0.031,0.085c0.012,0.012,0.023,0.023,0.038,0.031
				c0.015,0.008,0.031,0.012,0.046,0.008h0.724c0,0,0.031,0,0.046-0.008c0.015-0.008,0.027-0.015,0.038-0.027
				c0.012-0.012,0.023-0.023,0.027-0.038c0.008-0.015,0.012-0.031,0.012-0.05v-0.701c0,0,0-0.031-0.012-0.046
				c-0.008-0.015-0.015-0.027-0.027-0.038c-0.023-0.023-0.054-0.035-0.089-0.035H7.226z"/>
			<path class="st1" d="M7.842,30.767c-0.127-0.092-0.269-0.166-0.42-0.212c-0.15-0.05-0.304-0.073-0.462-0.073
				c-0.154,0-0.308,0.019-0.458,0.065c-0.119,0.038-0.235,0.085-0.343,0.142c-0.077,0.038-0.146,0.089-0.212,0.142
				c-0.05,0.042-0.077,0.069-0.081,0.077c-0.042,0.042-0.046,0.096-0.012,0.154l0.385,0.462c0.012,0.023,0.038,0.038,0.081,0.046
				c0.031,0,0.065-0.008,0.092-0.023l0.042-0.035c0.035-0.027,0.073-0.05,0.112-0.069c0.05-0.027,0.104-0.05,0.158-0.065
				c0.062-0.019,0.123-0.027,0.189-0.027c0.1,0,0.2,0.031,0.277,0.089c0.035,0.027,0.065,0.062,0.085,0.1
				c0.019,0.038,0.031,0.085,0.031,0.131c0,0.096-0.035,0.189-0.1,0.258c-0.077,0.085-0.162,0.166-0.246,0.243
				c-0.062,0.05-0.123,0.104-0.189,0.162c-0.065,0.062-0.123,0.135-0.173,0.208c-0.054,0.081-0.096,0.166-0.127,0.254
				c-0.035,0.104-0.05,0.212-0.05,0.32v0.135c0,0,0,0.031,0.008,0.046c0.008,0.015,0.015,0.027,0.027,0.038
				c0.012,0.012,0.023,0.019,0.038,0.027C6.51,33.37,6.525,33.37,6.541,33.37h0.662c0,0,0.031,0,0.046-0.008
				c0.015-0.008,0.027-0.015,0.038-0.027c0.012-0.012,0.019-0.023,0.027-0.038c0.008-0.015,0.008-0.031,0.008-0.046v-0.085
				c0-0.1,0.035-0.196,0.104-0.269c0.069-0.073,0.15-0.154,0.25-0.243c0.069-0.058,0.139-0.119,0.2-0.185
				c0.065-0.073,0.127-0.15,0.185-0.231c0.058-0.085,0.108-0.181,0.139-0.277c0.038-0.119,0.054-0.243,0.054-0.366
				c0-0.169-0.035-0.339-0.112-0.489c-0.069-0.139-0.173-0.258-0.296-0.35L7.842,30.767z"/>
		</g>
	</g>
	<g>
		<path class="st5" d="M23.662,0.596c-1.941,0-3.515,1.574-3.515,3.515c0,1.941,1.574,3.515,3.515,3.515
			c1.941,0,3.515-1.574,3.515-3.515C27.178,2.17,25.603,0.596,23.662,0.596z"/>
		<g>
			<path class="st1" d="M24.19,4.69h0.691c0.031,0,0.066-0.012,0.09-0.035c0.012-0.012,0.023-0.023,0.027-0.039
				c0.008-0.016,0.012-0.031,0.008-0.051L25.08,1.92c0-0.035-0.016-0.066-0.035-0.094c-0.027-0.023-0.062-0.039-0.098-0.039h-0.824
				c0,0-0.035,0-0.051,0.008c-0.016,0.008-0.031,0.016-0.043,0.031c-0.02,0.027-0.031,0.059-0.035,0.094l0.059,2.644
				c0.012,0.082,0.055,0.125,0.133,0.125H24.19z"/>
			<path class="st1" d="M25.018,5.272c-0.023-0.023-0.059-0.039-0.094-0.039h-0.769c0,0-0.031,0-0.047,0.008
				c-0.016,0.008-0.027,0.016-0.039,0.027c-0.023,0.023-0.035,0.055-0.035,0.09V6.1c0,0.035,0.012,0.066,0.035,0.094
				c0.012,0.012,0.023,0.023,0.039,0.031c0.016,0.008,0.031,0.012,0.051,0.012h0.769c0,0,0.035,0,0.051-0.012
				c0.016-0.008,0.031-0.016,0.043-0.027c0.012-0.012,0.023-0.027,0.031-0.043c0.008-0.016,0.012-0.035,0.012-0.051V5.362
				c0,0,0-0.035-0.012-0.051c-0.008-0.016-0.016-0.031-0.031-0.039H25.018z"/>
			<path class="st1" d="M23.26,5.272c-0.023-0.023-0.059-0.039-0.094-0.039h-0.769c0,0-0.031,0-0.047,0.008
				c-0.016,0.008-0.027,0.016-0.039,0.027c-0.012,0.012-0.02,0.027-0.027,0.043c-0.008,0.016-0.008,0.031-0.008,0.047V6.1
				c0,0.035,0.012,0.066,0.035,0.094c0.012,0.012,0.023,0.023,0.039,0.031c0.016,0.008,0.031,0.012,0.051,0.012h0.769
				c0,0,0.035,0,0.051-0.012c0.016-0.008,0.031-0.016,0.043-0.027c0.012-0.012,0.023-0.027,0.031-0.043
				c0.008-0.016,0.012-0.035,0.012-0.051V5.362c0,0,0-0.035-0.012-0.051c-0.008-0.016-0.016-0.031-0.031-0.039H23.26z"/>
			<path class="st1" d="M23.194,1.792h-0.824c0,0-0.035,0-0.051,0.008c-0.016,0.008-0.031,0.016-0.043,0.031
				c-0.02,0.027-0.031,0.059-0.035,0.094l0.059,2.644c0.012,0.082,0.055,0.125,0.133,0.125h0.691c0.031,0,0.066-0.012,0.09-0.035
				c0.012-0.012,0.023-0.023,0.027-0.039c0.008-0.016,0.012-0.031,0.008-0.051l0.074-2.644c0-0.035-0.016-0.066-0.035-0.094
				c-0.027-0.023-0.062-0.039-0.098-0.039H23.194z"/>
		</g>
	</g>
</g>
</svg>
